<svg width="190" height="32" viewBox="0 0 190 32" fill="none" xmlns="http://www.w3.org/2000/svg">
<g clip-path="url(#clip0_170_68)">
<path d="M0 0V31.18H31.18V0H0ZM9.10001 10.4H7.79V20.79H9.10001V22.09H5.2V9.09999H9.10001V10.4ZM19.48 5.31999C18.73 5.58999 18.19 6.30999 18.19 7.14999V24.04C18.19 24.88 18.73 25.6 19.48 25.87V25.99H11.71V25.87C12.46 25.6 13 24.88 13 24.04V7.14999C13 6.30999 12.46 5.58999 11.71 5.31999V5.2H19.48V5.31999ZM25.99 22.09H22.09V20.79H23.4V10.4H22.09V9.09999H25.99V22.09Z" fill="white"/>
<path d="M187.248 8.18953C188.448 8.18953 189.428 9.16952 189.428 10.3695C189.428 11.5695 188.448 12.5495 187.248 12.5495C186.048 12.5495 185.068 11.5695 185.068 10.3695C185.068 9.16952 186.048 8.18953 187.248 8.18953ZM187.248 7.76953C185.808 7.76953 184.648 8.92952 184.648 10.3695C184.648 11.8095 185.808 12.9695 187.248 12.9695C188.688 12.9695 189.848 11.8095 189.848 10.3695C189.848 8.92952 188.688 7.76953 187.248 7.76953Z" fill="white"/>
<path d="M186.23 9.01953H187.52C187.82 9.01953 188.04 9.07952 188.19 9.20952C188.34 9.33952 188.41 9.51953 188.41 9.74953C188.41 9.87953 188.39 9.98952 188.35 10.0695C188.31 10.1495 188.27 10.2195 188.22 10.2695C188.17 10.3195 188.12 10.3595 188.07 10.3795C188.02 10.3995 187.98 10.4195 187.96 10.4295C187.96 10.4295 188.04 10.4595 188.09 10.4795C188.14 10.4995 188.18 10.5295 188.22 10.5795C188.26 10.6195 188.29 10.6795 188.32 10.7495C188.35 10.8195 188.36 10.9095 188.36 11.0095C188.36 11.1695 188.37 11.3095 188.4 11.4395C188.42 11.5695 188.46 11.6595 188.51 11.7195H188C187.96 11.6595 187.94 11.5995 187.94 11.5295C187.94 11.4595 187.94 11.3895 187.94 11.3295C187.94 11.2095 187.94 11.0995 187.92 11.0095C187.9 10.9195 187.88 10.8495 187.84 10.7895C187.8 10.7295 187.74 10.6895 187.68 10.6595C187.62 10.6295 187.52 10.6195 187.41 10.6195H186.71V11.7295H186.24V9.02953L186.23 9.01953ZM186.7 10.2495H187.48C187.63 10.2495 187.75 10.2095 187.82 10.1395C187.9 10.0695 187.94 9.95952 187.94 9.81952C187.94 9.72952 187.93 9.65953 187.9 9.60953C187.87 9.55953 187.84 9.50952 187.8 9.47952C187.76 9.44952 187.71 9.42953 187.65 9.41953C187.59 9.41953 187.53 9.39952 187.47 9.39952H186.7V10.2395V10.2495Z" fill="white"/>
<path d="M42.7194 23.3788H38.3894C38.8094 23.0088 39.0194 22.5388 39.0194 21.9588V9.26883C39.0194 8.94883 38.9694 8.67882 38.8794 8.44882C38.7894 8.21882 38.6194 8.00883 38.3594 7.79883H42.7094C42.2494 8.09883 42.0294 8.59882 42.0294 9.28882V21.9988C42.0294 22.2788 42.0894 22.5388 42.2094 22.7888C42.3294 23.0388 42.4994 23.2288 42.7094 23.3788H42.7194Z" fill="white"/>
<path d="M54.7088 23.3788H50.6087C50.7387 23.2988 50.8488 23.1988 50.9388 23.0788C51.0288 22.9588 51.0887 22.8488 51.1287 22.7488C51.1687 22.6388 51.1987 22.5088 51.2287 22.3588C51.2487 22.1988 51.2687 22.0788 51.2687 21.9988C51.2687 21.9188 51.2687 21.7888 51.2687 21.6288C51.2687 21.4688 51.2687 21.3688 51.2687 21.3288V16.5388C51.2687 16.1988 51.2488 15.8988 51.2088 15.6388C51.1688 15.3788 51.0988 15.1288 50.9888 14.8888C50.8788 14.6488 50.7288 14.4588 50.5088 14.3288C50.2988 14.1988 50.0388 14.1388 49.7188 14.1388C48.9788 14.1388 48.1988 14.6088 47.3888 15.5588V21.7388C47.3888 21.7388 47.3888 21.8588 47.3888 21.9788C47.3888 22.0888 47.3988 22.1788 47.4188 22.2488C47.4288 22.3088 47.4488 22.3988 47.4688 22.4988C47.4887 22.5988 47.5188 22.6888 47.5588 22.7588C47.5988 22.8288 47.6388 22.9088 47.6888 22.9888C47.7388 23.0688 47.7987 23.1488 47.8587 23.2088C47.9287 23.2788 47.9988 23.3388 48.0788 23.3888H43.9987C44.2587 23.1888 44.4288 22.9488 44.5088 22.6688C44.5888 22.3888 44.6287 21.9488 44.6287 21.3388V14.2688C44.6287 13.9988 44.6288 13.7788 44.5988 13.6188C44.5788 13.4588 44.5188 13.2688 44.4188 13.0588C44.3088 12.8488 44.1587 12.6788 43.9688 12.5488H47.3888V13.8688C48.4288 12.7888 49.5388 12.2488 50.7388 12.2288C51.7788 12.2188 52.5787 12.4988 53.1587 13.0688C53.7387 13.6488 54.0288 14.6088 54.0288 15.9588V21.3388C54.0288 21.3388 54.0288 21.4388 54.0288 21.5788C54.0288 21.7188 54.0288 21.8188 54.0288 21.8788C54.0288 21.9388 54.0388 22.0388 54.0488 22.1788C54.0588 22.3188 54.0788 22.4288 54.1188 22.5188C54.1588 22.6088 54.1888 22.7088 54.2388 22.8288C54.2888 22.9488 54.3487 23.0488 54.4287 23.1388C54.5087 23.2288 54.6088 23.3188 54.7188 23.3888L54.7088 23.3788Z" fill="white"/>
<path d="M59.1717 14.2798V20.0798C59.1717 20.7298 59.2617 21.1598 59.4417 21.3598C59.6217 21.5598 59.9617 21.6598 60.4717 21.6598C60.7717 21.6598 61.0917 21.5998 61.4417 21.4798C61.7917 21.3598 62.0817 21.2098 62.3117 21.0398C62.2717 21.9698 62.1517 22.6598 61.9617 23.1298C61.6517 23.3098 61.2617 23.4398 60.8117 23.5298C60.3517 23.6198 59.9317 23.6598 59.5317 23.6598C57.8217 23.6598 56.8717 22.7798 56.6917 21.0198C56.6717 20.8298 56.6617 20.4798 56.6617 19.9698V14.2998H54.7617C55.5817 13.6298 56.2717 12.9298 56.8317 12.1798C57.4017 11.4298 57.8117 10.7098 58.0917 10.0098H59.1717V12.5698H62.0817V14.4998C61.4017 14.3698 60.7317 14.3098 60.0917 14.3098H59.1717V14.2798Z" fill="white"/>
<path d="M73.0998 17.8101V18.6701H66.0698C66.0798 19.0101 66.1598 19.3501 66.2798 19.7001C66.4098 20.0401 66.5998 20.3701 66.8398 20.6801C67.0898 20.9901 67.4198 21.2401 67.8298 21.4401C68.2498 21.6301 68.7198 21.7301 69.2398 21.7301C70.5798 21.7301 71.7898 21.4001 72.8698 20.7301C72.7998 21.1601 72.6898 21.6101 72.5398 22.0801C72.3898 22.5501 72.2098 22.9001 72.0098 23.1301C71.2798 23.4401 70.1598 23.5901 68.6598 23.5901C67.5698 23.5901 66.6199 23.3401 65.7999 22.8501C64.9899 22.3601 64.3698 21.6801 63.9598 20.8401C63.5498 19.9901 63.3398 19.0301 63.3398 17.9501C63.3398 17.1801 63.4398 16.4701 63.6398 15.8101C63.8398 15.1501 64.1398 14.5601 64.5398 14.0301C64.9398 13.5001 65.4798 13.0801 66.1498 12.7801C66.8198 12.4801 67.5998 12.3301 68.4798 12.3301C69.1098 12.3301 69.6898 12.4301 70.1998 12.6201C70.7098 12.8101 71.1498 13.0701 71.4998 13.4101C71.8498 13.7501 72.1498 14.1501 72.3898 14.6101C72.6298 15.0701 72.8098 15.5701 72.9198 16.1101C73.0298 16.6501 73.0798 17.2201 73.0798 17.8301L73.0998 17.8101ZM66.0898 16.9901H70.5098C70.5098 16.1501 70.3298 15.4601 69.9598 14.9001C69.5998 14.3401 69.0898 14.0701 68.4498 14.0701C68.0798 14.0701 67.7598 14.1401 67.4698 14.2801C67.1798 14.4201 66.9698 14.6001 66.8098 14.8001C66.6498 15.0001 66.5198 15.2501 66.4098 15.5401C66.2998 15.8301 66.2298 16.0801 66.1898 16.3001C66.1498 16.5201 66.1198 16.7501 66.0998 17.0001L66.0898 16.9901Z" fill="white"/>
<path d="M78.308 23.4103H74.168C74.328 23.3103 74.448 23.2003 74.548 23.0703C74.648 22.9403 74.718 22.7903 74.748 22.6203C74.788 22.4503 74.808 22.3203 74.818 22.2203C74.818 22.1203 74.828 22.0003 74.828 21.8503V9.46031C74.828 9.01031 74.798 8.70032 74.738 8.53032C74.638 8.27032 74.448 8.04031 74.188 7.82031H77.598V21.7703C77.598 22.5803 77.838 23.1303 78.308 23.4103Z" fill="white"/>
<path d="M83.4877 23.4103H79.3477C79.5077 23.3103 79.6277 23.2003 79.7277 23.0703C79.8277 22.9403 79.8977 22.7903 79.9277 22.6203C79.9677 22.4503 79.9877 22.3203 79.9977 22.2203C79.9977 22.1203 80.0077 22.0003 80.0077 21.8503V9.46031C80.0077 9.01031 79.9777 8.70032 79.9177 8.53032C79.8177 8.27032 79.6277 8.04031 79.3677 7.82031H82.7777V21.7703C82.7777 22.5803 83.0177 23.1303 83.4877 23.4103Z" fill="white"/>
<path d="M93.9006 17.8101V18.6701H86.8706C86.8806 19.0101 86.9607 19.3501 87.0807 19.7001C87.2107 20.0401 87.4006 20.3701 87.6406 20.6801C87.8906 20.9901 88.2206 21.2401 88.6306 21.4401C89.0506 21.6301 89.5206 21.7301 90.0406 21.7301C91.3806 21.7301 92.5906 21.4001 93.6706 20.7301C93.6006 21.1601 93.4906 21.6101 93.3406 22.0801C93.1906 22.5501 93.0106 22.9001 92.8106 23.1301C92.0806 23.4401 90.9606 23.5901 89.4606 23.5901C88.3706 23.5901 87.4206 23.3401 86.6006 22.8501C85.7906 22.3601 85.1706 21.6801 84.7606 20.8401C84.3506 19.9901 84.1406 19.0301 84.1406 17.9501C84.1406 17.1801 84.2407 16.4701 84.4407 15.8101C84.6407 15.1501 84.9406 14.5601 85.3406 14.0301C85.7406 13.5001 86.2806 13.0801 86.9506 12.7801C87.6206 12.4801 88.4006 12.3301 89.2806 12.3301C89.9106 12.3301 90.4906 12.4301 91.0006 12.6201C91.5106 12.8101 91.9507 13.0701 92.3007 13.4101C92.6507 13.7501 92.9507 14.1501 93.1907 14.6101C93.4307 15.0701 93.6107 15.5701 93.7207 16.1101C93.8306 16.6501 93.8806 17.2201 93.8806 17.8301L93.9006 17.8101ZM86.8906 16.9901H91.3106C91.3106 16.1501 91.1306 15.4601 90.7606 14.9001C90.4006 14.3401 89.8906 14.0701 89.2506 14.0701C88.8806 14.0701 88.5606 14.1401 88.2706 14.2801C87.9806 14.4201 87.7706 14.6001 87.6106 14.8001C87.4506 15.0001 87.3206 15.2501 87.2106 15.5401C87.1006 15.8301 87.0306 16.0801 86.9906 16.3001C86.9506 16.5201 86.9206 16.7501 86.9006 17.0001L86.8906 16.9901Z" fill="white"/>
<path d="M104.137 20.8486C104.067 21.7986 103.827 22.5887 103.417 23.1987C102.727 23.5287 101.817 23.6987 100.677 23.6987C99.0669 23.6987 97.7269 23.1686 96.6569 22.1087C95.5869 21.0487 95.0469 19.7287 95.0469 18.1487C95.0469 16.3787 95.5869 14.9487 96.6769 13.8587C97.7569 12.7687 99.1869 12.2188 100.947 12.2188C101.847 12.2188 102.687 12.3188 103.477 12.5188L103.647 14.9287C103.167 14.4687 102.717 14.1487 102.317 13.9587C101.917 13.7687 101.417 13.6687 100.837 13.6687C100.407 13.6687 100.027 13.7488 99.6869 13.9088C99.3469 14.0688 99.0769 14.2688 98.8669 14.5188C98.6569 14.7688 98.4769 15.0688 98.3369 15.4088C98.1969 15.7488 98.0969 16.0987 98.0369 16.4487C97.9869 16.7987 97.9569 17.1687 97.9569 17.5487C97.9569 17.9288 97.9869 18.3486 98.0469 18.7486C98.1069 19.1586 98.2169 19.5686 98.3769 19.9986C98.5369 20.4286 98.7369 20.7987 98.9769 21.1287C99.2169 21.4587 99.5369 21.7288 99.9269 21.9388C100.317 22.1488 100.747 22.2586 101.237 22.2586C101.727 22.2586 102.217 22.1187 102.747 21.8486C103.277 21.5687 103.737 21.2487 104.137 20.8587V20.8486Z" fill="white"/>
<path d="M123.35 23.38H119.92V22.06C118.88 23.14 117.77 23.68 116.57 23.7C116.07 23.7 115.63 23.65 115.25 23.52C114.87 23.39 114.53 23.19 114.22 22.91C113.92 22.63 113.68 22.24 113.52 21.75C113.36 21.26 113.28 20.66 113.28 19.97V14.18C113.28 14.18 113.28 14.06 113.27 13.94C113.27 13.82 113.25 13.74 113.24 13.67C113.23 13.61 113.21 13.53 113.18 13.42C113.16 13.31 113.13 13.23 113.09 13.15C113.05 13.08 113.01 13 112.96 12.92C112.91 12.84 112.85 12.77 112.77 12.7C112.69 12.64 112.61 12.58 112.52 12.52H116.04V19.37C116.04 19.71 116.06 20.01 116.1 20.27C116.14 20.53 116.21 20.78 116.32 21.02C116.43 21.26 116.59 21.45 116.81 21.58C117.03 21.71 117.3 21.77 117.62 21.77C118.34 21.77 119.11 21.3 119.92 20.35V14.16C119.92 14.16 119.92 14.04 119.92 13.92C119.92 13.81 119.91 13.72 119.89 13.65C119.88 13.59 119.86 13.5 119.84 13.39C119.82 13.28 119.79 13.2 119.75 13.12C119.71 13.04 119.67 12.97 119.62 12.89C119.57 12.81 119.51 12.74 119.45 12.67C119.38 12.61 119.31 12.55 119.23 12.5H122.68V21.63C122.68 21.92 122.68 22.13 122.7 22.28C122.71 22.43 122.77 22.61 122.88 22.82C122.99 23.03 123.14 23.21 123.36 23.34L123.35 23.38Z" fill="white"/>
<path d="M133.368 23.379H129.938V22.399C129.588 22.809 129.168 23.129 128.698 23.359C128.228 23.589 127.728 23.699 127.218 23.699C126.708 23.699 126.208 23.589 125.738 23.369C125.268 23.149 124.878 22.809 124.558 22.349C124.238 21.889 124.078 21.359 124.078 20.749C124.078 20.379 124.108 20.049 124.178 19.759C124.248 19.479 124.378 19.209 124.558 18.949C124.748 18.689 124.968 18.459 125.228 18.249C125.488 18.049 125.858 17.829 126.328 17.599C126.798 17.369 127.308 17.149 127.858 16.939C128.408 16.729 129.098 16.479 129.928 16.199V15.919C129.928 15.159 129.798 14.589 129.538 14.189C129.278 13.789 128.838 13.599 128.218 13.599C127.598 13.599 126.998 13.769 126.388 14.119C125.768 14.469 125.208 14.899 124.688 15.419L125.338 12.839C125.768 12.639 126.268 12.479 126.838 12.369C127.408 12.259 127.958 12.209 128.478 12.209C128.998 12.209 129.428 12.239 129.818 12.289C130.208 12.339 130.598 12.439 130.968 12.579C131.338 12.719 131.648 12.909 131.898 13.149C132.138 13.389 132.338 13.699 132.478 14.089C132.628 14.479 132.698 14.939 132.698 15.469V21.939C132.698 22.589 132.918 23.069 133.368 23.379ZM129.938 20.929V17.569C128.688 18.029 127.848 18.429 127.428 18.769C127.008 19.109 126.798 19.579 126.798 20.189C126.798 20.669 126.938 21.049 127.208 21.349C127.478 21.649 127.838 21.789 128.258 21.789C128.808 21.789 129.358 21.499 129.938 20.929Z" fill="white"/>
<path d="M138.562 23.3791H134.422C134.582 23.2791 134.702 23.1691 134.802 23.0391C134.902 22.9091 134.972 22.7591 135.002 22.5891C135.042 22.4191 135.062 22.2891 135.072 22.1891C135.072 22.0891 135.082 21.9691 135.082 21.8191V9.42906C135.082 8.97906 135.052 8.66907 134.992 8.49907C134.892 8.23907 134.702 8.00906 134.442 7.78906H137.852V21.7391C137.852 22.5491 138.092 23.0991 138.562 23.3791Z" fill="white"/>
<path d="M157.981 15.8886C157.981 17.4186 157.641 18.7486 156.971 19.8886C156.301 21.0286 155.371 21.8986 154.181 22.4886C153.001 23.0786 151.651 23.3786 150.131 23.3786H143.051C143.291 23.1986 143.461 23.0086 143.561 22.7886C143.661 22.5786 143.711 22.2986 143.711 21.9786V9.33859C143.711 8.93859 143.661 8.6286 143.551 8.4086C143.441 8.1886 143.271 7.97859 143.031 7.80859H148.801C149.821 7.80859 150.781 7.9186 151.691 8.1286C152.601 8.3386 153.441 8.67859 154.211 9.11859C154.981 9.56859 155.641 10.1086 156.201 10.7386C156.761 11.3686 157.191 12.1286 157.511 13.0086C157.821 13.8886 157.981 14.8486 157.981 15.8886ZM154.731 15.7386C154.731 13.7286 154.161 12.1386 153.011 10.9586C151.871 9.77859 150.271 9.1886 148.221 9.1886C147.691 9.1886 147.191 9.2286 146.741 9.2986V21.8086C147.541 21.9386 148.591 21.9986 149.901 21.9986C150.581 21.9986 151.201 21.8786 151.761 21.6386C152.321 21.3986 152.781 21.0686 153.141 20.6686C153.501 20.2586 153.811 19.7886 154.051 19.2386C154.301 18.6886 154.471 18.1286 154.581 17.5486C154.691 16.9686 154.741 16.3586 154.741 15.7386H154.731Z" fill="white"/>
<path d="M167.938 23.379H164.508V22.399C164.158 22.809 163.738 23.129 163.268 23.359C162.798 23.589 162.298 23.699 161.788 23.699C161.278 23.699 160.778 23.589 160.308 23.369C159.838 23.149 159.448 22.809 159.128 22.349C158.808 21.889 158.648 21.359 158.648 20.749C158.648 20.379 158.678 20.049 158.748 19.759C158.818 19.479 158.948 19.209 159.128 18.949C159.318 18.689 159.538 18.459 159.798 18.249C160.058 18.049 160.428 17.829 160.898 17.599C161.368 17.369 161.878 17.149 162.428 16.939C162.978 16.729 163.668 16.479 164.498 16.199V15.919C164.498 15.159 164.368 14.589 164.108 14.189C163.848 13.789 163.408 13.599 162.788 13.599C162.168 13.599 161.568 13.769 160.958 14.119C160.338 14.469 159.778 14.899 159.258 15.419L159.908 12.839C160.338 12.639 160.838 12.479 161.408 12.369C161.978 12.259 162.528 12.209 163.048 12.209C163.568 12.209 163.998 12.239 164.388 12.289C164.778 12.339 165.168 12.439 165.538 12.579C165.908 12.719 166.218 12.909 166.468 13.149C166.708 13.389 166.908 13.699 167.048 14.089C167.198 14.479 167.268 14.939 167.268 15.469V21.939C167.268 22.589 167.488 23.069 167.938 23.379ZM164.508 20.929V17.569C163.258 18.029 162.418 18.429 161.998 18.769C161.578 19.109 161.368 19.579 161.368 20.189C161.368 20.669 161.508 21.049 161.778 21.349C162.048 21.649 162.408 21.789 162.828 21.789C163.378 21.789 163.928 21.499 164.508 20.929Z" fill="white"/>
<path d="M172.279 14.2798V20.0798C172.279 20.7298 172.369 21.1598 172.549 21.3598C172.729 21.5598 173.069 21.6598 173.579 21.6598C173.879 21.6598 174.199 21.5998 174.549 21.4798C174.899 21.3598 175.189 21.2098 175.419 21.0398C175.379 21.9698 175.259 22.6598 175.069 23.1298C174.759 23.3098 174.369 23.4398 173.909 23.5298C173.449 23.6198 173.029 23.6598 172.629 23.6598C170.919 23.6598 169.969 22.7798 169.789 21.0198C169.769 20.8298 169.759 20.4798 169.759 19.9698V14.2998H167.859C168.679 13.6298 169.369 12.9298 169.929 12.1798C170.499 11.4298 170.909 10.7098 171.189 10.0098H172.269V12.5698H175.179V14.4998C174.499 14.3698 173.829 14.3098 173.189 14.3098H172.269L172.279 14.2798Z" fill="white"/>
<path d="M185.321 23.379H181.891V22.399C181.541 22.809 181.121 23.129 180.651 23.359C180.181 23.589 179.681 23.699 179.171 23.699C178.661 23.699 178.161 23.589 177.691 23.369C177.221 23.149 176.831 22.809 176.511 22.349C176.191 21.889 176.031 21.359 176.031 20.749C176.031 20.379 176.061 20.049 176.131 19.759C176.201 19.479 176.331 19.209 176.511 18.949C176.701 18.689 176.921 18.459 177.181 18.249C177.441 18.049 177.811 17.829 178.281 17.599C178.751 17.369 179.261 17.149 179.811 16.939C180.361 16.729 181.051 16.479 181.881 16.199V15.919C181.881 15.159 181.751 14.589 181.491 14.189C181.231 13.789 180.791 13.599 180.171 13.599C179.551 13.599 178.951 13.769 178.341 14.119C177.721 14.469 177.161 14.899 176.641 15.419L177.291 12.839C177.721 12.639 178.221 12.479 178.791 12.369C179.361 12.259 179.911 12.209 180.431 12.209C180.951 12.209 181.381 12.239 181.771 12.289C182.161 12.339 182.551 12.439 182.921 12.579C183.291 12.719 183.601 12.909 183.851 13.149C184.091 13.389 184.291 13.699 184.431 14.089C184.581 14.479 184.651 14.939 184.651 15.469V21.939C184.651 22.589 184.871 23.069 185.321 23.379ZM181.891 20.929V17.569C180.641 18.029 179.801 18.429 179.381 18.769C178.961 19.109 178.751 19.579 178.751 20.189C178.751 20.669 178.891 21.049 179.161 21.349C179.431 21.649 179.791 21.789 180.211 21.789C180.761 21.789 181.311 21.499 181.891 20.929Z" fill="white"/>
<path d="M108.682 14.2798V20.0798C108.682 20.7298 108.772 21.1598 108.952 21.3598C109.132 21.5598 109.472 21.6598 109.982 21.6598C110.282 21.6598 110.602 21.5998 110.952 21.4798C111.302 21.3598 111.592 21.2098 111.822 21.0398C111.782 21.9698 111.662 22.6598 111.472 23.1298C111.162 23.3098 110.772 23.4398 110.312 23.5298C109.852 23.6198 109.432 23.6598 109.032 23.6598C107.322 23.6598 106.372 22.7798 106.192 21.0198C106.172 20.8298 106.162 20.4798 106.162 19.9698V14.2998H104.262C105.082 13.6298 105.772 12.9298 106.332 12.1798C106.902 11.4298 107.312 10.7098 107.592 10.0098H108.672V12.5698H111.582V14.4998C110.902 14.3698 110.232 14.3098 109.592 14.3098H108.672L108.682 14.2798Z" fill="white"/>
</g>
<defs>
<clipPath id="clip0_170_68">
<rect width="190" height="32" fill="white"/>
</clipPath>
</defs>
</svg>
